<?xml version="1.0" encoding="utf-8" ?>
<svg baseProfile="full" height="100%" version="1.1" viewBox="0,0,1000,300" width="100%" xmlns="http://www.w3.org/2000/svg" xmlns:ev="http://www.w3.org/2001/xml-events" xmlns:xlink="http://www.w3.org/1999/xlink"><defs /><rect fill="white" height="300" width="1000" x="0" y="0" /><path d="M0,0 M373.2348937988281,48.54016876220703 L373.16595458984375,48.79212951660156 L373.0209655761719,49.443824768066406 L372.79248046875,50.63037109375 L372.51953125,52.374427795410156 L372.2427978515625,54.60462188720703 L372.00640869140625,57.1814079284668 L371.84088134765625,59.94280242919922 L371.76904296875,62.71421432495117 L371.7965087890625,65.28776550292969 L371.9224853515625,67.484375 L372.1199035644531,69.17139434814453 L372.36090087890625,70.15325164794922 L372.60870361328125,70.342529296875 L372.8423767089844,69.77786254882812 L373.0201721191406,68.91871643066406 L373.126220703125,68.17491149902344 M373.1627197265625,47.723106384277344 L373.1181335449219,47.89339065551758 L373.11016845703125,48.353416442871094 L373.2196960449219,49.18121337890625 L373.54339599609375,50.33203125 L374.124267578125,51.639713287353516 L374.9733581542969,52.92900085449219 L376.04150390625,54.02126693725586 L377.2658996582031,54.77222442626953 L378.5853576660156,55.078521728515625 L379.94378662109375,54.880592346191406 L381.296875,54.18221664428711 L382.6041259765625,53.054656982421875 L383.8125305175781,51.625064849853516 L384.865966796875,50.03004455566406 L385.7247314453125,48.442298889160156 L386.3599853515625,47.02027130126953 L386.7793273925781,45.912925720214844 L387.0067138671875,45.21070861816406 L387.07550048828125,45.0 L387.0035705566406,45.314659118652344 L386.80474853515625,46.2068977355957 L386.5074768066406,47.672264099121094 L386.15020751953125,49.670433044433594 L385.7922058105469,52.08377456665039 L385.4903869628906,54.7776985168457 L385.27362060546875,57.575714111328125 L385.1484375,60.31342697143555 L385.127685546875,62.83184051513672 L385.18841552734375,65.00910186767578 L385.30767822265625,66.75215148925781 L385.4584655761719,68.01678466796875 L385.65423583984375,68.71597290039062 L385.91632080078125,68.8163833618164 L386.2908935546875,68.37957763671875 L386.6643371582031,67.75312042236328 L386.945068359375,67.22631072998047 M395.1441345214844,58.4902229309082 L394.96630859375,58.226009368896484 L394.5931396484375,57.90241622924805 L393.9763488769531,57.690162658691406 L393.1311950683594,57.83212661743164 L392.09906005859375,58.434417724609375 L390.9706726074219,59.51259231567383 L389.89337158203125,60.9804801940918 L389.0177307128906,62.67710876464844 L388.4686279296875,64.39714050292969 L388.3194885253906,65.94570922851562 L388.5813293457031,67.148681640625 L389.2247009277344,67.8858871459961 L390.19268798828125,68.08820343017578 L391.39129638671875,67.71311950683594 L392.7009582519531,66.77916717529297 L393.982177734375,65.3682861328125 L395.0995788574219,63.63418960571289 L395.9620361328125,61.81513595581055 L396.5409240722656,60.1636962890625 L396.87188720703125,58.873565673828125 L397.0076599121094,58.068992614746094 L397.01934814453125,57.7901725769043 L396.9657897949219,58.02491760253906 L396.8834228515625,58.76853561401367 L396.8037109375,59.96869659423828 L396.7478942871094,61.505149841308594 L396.731201171875,63.22376251220703 L396.80816650390625,64.92328643798828 L397.0125732421875,66.39443969726562 L397.3436279296875,67.50434112548828 L397.6822509765625,68.17854309082031 L397.9289855957031,68.47649383544922 M402.89617919921875,47.89678192138672 L402.9461364746094,47.71596145629883 L402.9862365722656,47.667518615722656 L402.9637756347656,47.99504089355469 L402.83642578125,48.9376220703125 L402.6131591796875,50.51878356933594 L402.32403564453125,52.64476776123047 L402.0077819824219,55.12944793701172 L401.7005310058594,57.79141616821289 L401.431640625,60.412269592285156 L401.2411193847656,62.78523254394531 L401.1541748046875,64.73526763916016 L401.1728210449219,66.16339111328125 L401.27471923828125,67.0358657836914 L401.43267822265625,67.36724090576172 L401.64276123046875,67.17891693115234 L401.9455871582031,66.49160766601562 L402.39056396484375,65.35333251953125 L403.0174865722656,63.8865966796875 L403.83148193359375,62.246009826660156 L404.803955078125,60.591941833496094 L405.87432861328125,59.05427169799805 L406.9679870605469,57.73225021362305 L407.9980163574219,56.70381546020508 L408.88458251953125,56.033958435058594 L409.54443359375,55.746212005615234 L409.9217529296875,55.8367805480957 L409.9766540527344,56.24941635131836 L409.6778259277344,56.92087173461914 L409.0273132324219,57.784202575683594 L408.0779113769531,58.7743034362793 L406.9080810546875,59.81711196899414 L405.6525573730469,60.85227584838867 L404.46527099609375,61.81069564819336 L403.48931884765625,62.65817642211914 L402.82269287109375,63.390830993652344 L402.5156555175781,64.0297622680664 L402.5712890625,64.59623718261719 L402.96856689453125,65.10298156738281 L403.6762390136719,65.53849029541016 L404.6737976074219,65.89240264892578 L405.90460205078125,66.1452865600586 L407.29656982421875,66.28543090820312 L408.7597351074219,66.30879974365234 L410.2021179199219,66.18303680419922 L411.5191345214844,65.8938980102539 L412.6376037597656,65.46454620361328 L413.4168395996094,65.04292297363281 L413.8431396484375,64.73973846435547 M414.55328369140625,58.59656524658203 L414.6123046875,58.649776458740234 L414.6575012207031,58.883583068847656 L414.646240234375,59.417930603027344 L414.5474853515625,60.30887985229492 L414.39068603515625,61.49427795410156 L414.24578857421875,62.86700439453125 L414.17730712890625,64.2828369140625 L414.2337646484375,65.55532836914062 L414.42596435546875,66.53120422363281 L414.7212219238281,67.10758209228516 L415.00152587890625,67.33029174804688 L415.1971435546875,67.33976745605469 M415.63446044921875,51.697547912597656 L415.62591552734375,51.66924285888672 L415.6398010253906,51.69091033935547 L415.6683654785156,51.748634338378906 L415.7038879394531,51.82849884033203 M420.0712585449219,59.80083465576172 L420.11865234375,59.53308868408203 L420.1812744140625,59.24396896362305 L420.2332763671875,59.12451171875 L420.2497253417969,59.41240692138672 L420.22216796875,60.182952880859375 L420.15185546875,61.40133285522461 L420.0353698730469,62.90122604370117 L419.89764404296875,64.49019622802734 L419.7701110839844,65.9554214477539 L419.6890563964844,67.1336441040039 L419.68194580078125,67.91289520263672 L419.7640380859375,68.22415161132812 L419.9346618652344,68.01033782958984 L420.2113037109375,67.24848175048828 L420.60797119140625,65.99134826660156 L421.1374816894531,64.37482452392578 L421.8212890625,62.585594177246094 L422.662841796875,60.845733642578125 L423.62982177734375,59.34077835083008 L424.6656799316406,58.21796798706055 L425.6753234863281,57.57853317260742 L426.5684509277344,57.48369216918945 L427.2844543457031,57.951595306396484 L427.7923583984375,58.9539909362793 L428.0778503417969,60.38446044921875 L428.16827392578125,62.10107421875 L428.10601806640625,63.920387268066406 L428.0103454589844,65.648193359375 L428.01116943359375,67.10508728027344 L428.2024230957031,68.16203308105469 L428.48162841796875,68.77208709716797 L428.7367248535156,69.02446746826172 M436.7174072265625,61.79997634887695 L436.646728515625,61.36690902709961 L436.44073486328125,60.74332809448242 L436.0347900390625,60.100563049316406 L435.39312744140625,59.70937728881836 L434.54248046875,59.690147399902344 L433.5661926269531,60.096405029296875 L432.58514404296875,60.88068389892578 L431.7519226074219,61.961029052734375 L431.2137451171875,63.18034744262695 L431.0762023925781,64.36298370361328 L431.40313720703125,65.34965515136719 L432.1783142089844,66.00444030761719 L433.32122802734375,66.23651885986328 L434.69635009765625,66.01009368896484 L436.13824462890625,65.34671783447266 L437.4862365722656,64.34957885742188 L438.60723876953125,63.17741394042969 L439.4147033691406,62.005584716796875 L439.89306640625,60.97622299194336 L440.0789794921875,60.18198776245117 L440.04681396484375,59.68473434448242 L439.8909606933594,59.543968200683594 L439.694091796875,59.821624755859375 L439.52093505859375,60.5682258605957 L439.41998291015625,61.75754928588867 L439.40966796875,63.30991744995117 L439.4858703613281,65.12422180175781 L439.61004638671875,67.09707641601562 L439.7227478027344,69.1455078125 L439.7694091796875,71.21217346191406 L439.703857421875,73.20680236816406 L439.5029602050781,75.04444885253906 L439.1695251464844,76.64704895019531 L438.69805908203125,77.94587707519531 L438.07965087890625,78.89845275878906 L437.3419189453125,79.50773620605469 L436.5159912109375,79.78797912597656 L435.6497802734375,79.77653503417969 L434.794921875,79.51176452636719 L434.00927734375,78.98680877685547 L433.344970703125,78.23057556152344 L432.865966796875,77.32068634033203 L432.5908203125,76.51854705810547 L432.48126220703125,75.98712158203125 M453.97662353515625,59.30864334106445 L453.95556640625,59.59375 L453.9239196777344,60.23394775390625 L453.8910217285156,61.29365921020508 L453.8608093261719,62.69438171386719 L453.8334655761719,64.30210876464844 L453.8023986816406,65.92357635498047 L453.76495361328125,67.36774444580078 L453.72174072265625,68.4881591796875 L453.6846008300781,69.16900634765625 L453.6650695800781,69.32815551757812 L453.681884765625,68.93946838378906 L453.76361083984375,67.99398803710938 L453.95941162109375,66.54884338378906 L454.3327331542969,64.75982666015625 L454.9287109375,62.803489685058594 L455.76031494140625,60.86952209472656 L456.7769775390625,59.130733489990234 L457.8929443359375,57.715518951416016 L459.014404296875,56.73284912109375 L460.06982421875,56.30091094970703 L460.9884948730469,56.4832763671875 L461.7117919921875,57.295501708984375 L462.18603515625,58.688873291015625 L462.3988342285156,60.528656005859375 L462.39007568359375,62.57528305053711 L462.2528991699219,64.53705596923828 L462.0860595703125,66.13787078857422 L461.96771240234375,67.17716979980469 L461.94915771484375,67.56959533691406 L462.0697937011719,67.3163070678711 L462.3592834472656,66.4605712890625 L462.84844970703125,65.0859146118164 L463.5359802246094,63.364601135253906 L464.3936767578125,61.52046203613281 L465.3584899902344,59.78902053833008 L466.3464660644531,58.35258102416992 L467.27374267578125,57.33174514770508 L468.0785827636719,56.77989959716797 L468.716796875,56.737159729003906 L469.1692199707031,57.227542877197266 L469.4256896972656,58.23831558227539 L469.4947814941406,59.69358444213867 L469.42303466796875,61.46569061279297 L469.30120849609375,63.36269760131836 L469.22760009765625,65.15147399902344 L469.270751953125,66.63133239746094 L469.3843078613281,67.6163330078125 L469.5006103515625,68.1119613647461 M474.1219177246094,56.63911819458008 L474.13165283203125,56.742218017578125 L474.13433837890625,57.10493469238281 L474.130126953125,57.85997009277344 L474.135986328125,59.02787780761719 L474.1929931640625,60.484764099121094 L474.3450622558594,62.040409088134766 L474.64178466796875,63.490028381347656 L475.1094970703125,64.6689224243164 L475.75701904296875,65.46220397949219 L476.56884765625,65.77371978759766 L477.5116882324219,65.53894805908203 L478.54437255859375,64.7550277709961 L479.62646484375,63.50017166137695 L480.68853759765625,61.94437789916992 L481.646240234375,60.326786041259766 L482.4201965332031,58.8736686706543 L482.959228515625,57.75078201293945 L483.2550048828125,57.06529998779297 L483.3395080566406,56.86819076538086 L483.2557373046875,57.19232940673828 L483.04766845703125,58.07856369018555 L482.77459716796875,59.51476287841797 L482.50335693359375,61.44644546508789 L482.2928771972656,63.785919189453125 L482.17919921875,66.39974212646484 L482.1727294921875,69.15243530273438 L482.24127197265625,71.89968872070312 L482.3327941894531,74.46817779541016 L482.4055480957031,76.7080307006836 L482.42388916015625,78.51325225830078 L482.3443603515625,79.82087707519531 L482.12872314453125,80.63894653320312 L481.736572265625,80.99855041503906 L481.1441955566406,80.94686126708984 L480.3790588378906,80.56197357177734 L479.5048828125,79.90555572509766 L478.6116943359375,79.06705474853516 L477.7908935546875,78.15217590332031 L477.1874694824219,77.39281463623047 L476.8423767089844,76.90875244140625 M496.7462158203125,57.30044937133789 L496.72113037109375,57.27293395996094 L496.6702880859375,57.38749694824219 L496.5826416015625,57.788211822509766 L496.4676513671875,58.593101501464844 L496.34332275390625,59.78868865966797 L496.2388610839844,61.27694320678711 L496.2102355957031,62.91360855102539 L496.3008728027344,64.51789855957031 L496.53533935546875,65.90457916259766 L496.92425537109375,66.91200256347656 L497.4598083496094,67.41474914550781 L498.129638671875,67.34326934814453 L498.934814453125,66.71187591552734 L499.83746337890625,65.60138702392578 L500.76348876953125,64.17086791992188 L501.607177734375,62.63921356201172 L502.2726745605469,61.2337646484375 L502.71661376953125,60.114349365234375 L502.95086669921875,59.39293670654297 L503.021484375,59.115421295166016 L502.9735107421875,59.304351806640625 L502.84912109375,59.971229553222656 L502.693115234375,61.07951736450195 L502.5863342285156,62.48965072631836 L502.61767578125,64.02587127685547 L502.87554931640625,65.47254180908203 L503.4070739746094,66.64755249023438 L504.20269775390625,67.41934204101562 L505.19708251953125,67.70940399169922 L506.31219482421875,67.47525024414062 L507.4471435546875,66.74199676513672 L508.4952392578125,65.56587982177734 L509.3534240722656,64.05567169189453 L509.9347229003906,62.34215545654297 L510.19830322265625,60.57746124267578 L510.14886474609375,58.921600341796875 L509.8507080078125,57.530845642089844 L509.4157409667969,56.498592376708984 L508.95819091796875,55.85130310058594 L508.6481018066406,55.59770202636719 L508.61224365234375,55.69608688354492 L508.8833923339844,56.08127975463867 L509.2774658203125,56.536434173583984 L509.62249755859375,56.89434814453125 M520.190673828125,59.358848571777344 L519.937255859375,58.961647033691406 L519.4308471679688,58.42033767700195 L518.6419067382812,57.9288330078125 L517.617431640625,57.7633056640625 L516.40771484375,58.027313232421875 L515.11572265625,58.767757415771484 L513.8622436523438,59.91500473022461 L512.8021850585938,61.36408996582031 L512.0767822265625,62.95296096801758 L511.774169921875,64.49142456054688 L511.9263000488281,65.79227447509766 L512.5225219726562,66.71034240722656 L513.5029907226562,67.1370620727539 L514.7791748046875,67.02374267578125 L516.222900390625,66.37448120117188 L517.6822509765625,65.26221466064453 L519.0084838867188,63.81187438964844 L520.1134033203125,62.193790435791016 L520.9510498046875,60.60776138305664 L521.5354614257812,59.23590087890625 L521.88671875,58.199153900146484 L522.0325927734375,57.579986572265625 L521.996826171875,57.4224853515625 L521.8273315429688,57.747493743896484 L521.56298828125,58.5703010559082 L521.2742919921875,59.83776092529297 L521.0277099609375,61.405738830566406 L520.8909912109375,63.075286865234375 L520.9321899414062,64.63298797607422 L521.201171875,65.89275360107422 L521.707763671875,66.72990417480469 L522.437255859375,67.05816650390625 L523.3461303710938,66.8450927734375 L524.3601684570312,66.10440063476562 L525.3985595703125,64.91838836669922 L526.37939453125,63.43209457397461 L527.233642578125,61.81711196899414 L527.910888671875,60.25855255126953 L528.3978271484375,58.9166259765625 L528.6888427734375,57.896827697753906 L528.7938232421875,57.282264709472656 L528.7344360351562,57.12255096435547 L528.5380249023438,57.4284782409668 L528.235107421875,58.2057991027832 L527.9002685546875,59.38945770263672 L527.6047973632812,60.84757995605469 L527.4312744140625,62.41925048828125 L527.43115234375,63.91069030761719 L527.6401977539062,65.14881134033203 L528.055419921875,66.01773071289062 L528.6870727539062,66.42996978759766 L529.5238037109375,66.33332824707031 L530.5408325195312,65.73416137695312 L531.6490478515625,64.6875 L532.765380859375,63.328758239746094 L533.7670288085938,61.82273864746094 L534.5762939453125,60.353172302246094 L535.1652221679688,59.063446044921875 L535.53564453125,58.05970001220703 L535.702392578125,57.41486358642578 L535.7202758789062,57.21109390258789 L535.6131591796875,57.494991302490234 L535.4213256835938,58.31440734863281 L535.1949462890625,59.662689208984375 L534.9772338867188,61.49008560180664 L534.8148803710938,63.710391998291016 L534.737548828125,66.23115539550781 L534.724609375,68.93171691894531 L534.7381591796875,71.68929290771484 L534.72509765625,74.36582946777344 L534.6318969726562,76.82514953613281 L534.4207153320312,78.93653869628906 L534.0589599609375,80.60418701171875 L533.5075073242188,81.77436065673828 L532.7510986328125,82.43560028076172 L531.7848510742188,82.61429595947266 L530.627197265625,82.35693359375 L529.3300170898438,81.71310424804688 L527.97998046875,80.76270294189453 L526.6594848632812,79.54784393310547 L525.4727783203125,78.15853118896484 L524.4994506835938,76.7213134765625 L523.8411865234375,75.5595474243164 L523.493896484375,74.83222961425781 M557.131591796875,60.59004592895508 L557.0531005859375,60.14546203613281 L556.8292236328125,59.42892837524414 L556.3798828125,58.55365753173828 L555.6609497070312,57.75418472290039 L554.669921875,57.17237091064453 L553.4376220703125,56.951847076416016 L552.0437622070312,57.20536804199219 L550.5932006835938,58.00246810913086 L549.2200927734375,59.32473373413086 L548.0674438476562,61.05372619628906 L547.2692260742188,62.9991455078125 L546.9097900390625,64.92949676513672 L547.0333862304688,66.62619018554688 L547.6364135742188,67.89629364013672 L548.6680908203125,68.58634948730469 L550.0313110351562,68.60414123535156 L551.6063842773438,67.92074584960938 L553.2685546875,66.55964660644531 L554.9041137695312,64.60707092285156 L556.4364013671875,62.19675827026367 L557.806640625,59.49325942993164 L558.966796875,56.696571350097656 L559.89453125,54.02308654785156 L560.5794677734375,51.68642044067383 L561.0303344726562,49.838294982910156 L561.283447265625,48.5670280456543 L561.3848266601562,47.917869567871094 L561.3609008789062,47.907554626464844 L561.2474365234375,48.56214141845703 L561.0478515625,49.908470153808594 L560.791015625,51.880828857421875 L560.5119018554688,54.32915496826172 L560.2606201171875,57.040748596191406 L560.076904296875,59.75453186035156 L559.9935913085938,62.23539352416992 L560.0560302734375,64.26824188232422 L560.2972412109375,65.70099639892578 L560.7135009765625,66.49021911621094 L561.1459350585938,66.78376770019531 L561.471435546875,66.79779052734375 M568.946533203125,58.95058822631836 L568.8594970703125,58.56911087036133 L568.6083984375,58.07638931274414 L568.122802734375,57.6598014831543 L567.375732421875,57.571983337402344 L566.4087524414062,57.89442443847656 L565.3351440429688,58.66060256958008 L564.2989501953125,59.81604766845703 L563.4550170898438,61.26878356933594 L562.9474487304688,62.86121368408203 L562.8438720703125,64.39278411865234 L563.169921875,65.67970275878906 L563.891845703125,66.57730865478516 L564.9304809570312,66.98311614990234 L566.1793823242188,66.85076904296875 L567.519287109375,66.18756866455078 L568.7828369140625,65.04549407958984 L569.8314208984375,63.54578399658203 L570.52783203125,61.84727096557617 L570.8027954101562,60.125282287597656 L570.620849609375,58.57368087768555 L570.056396484375,57.34903335571289 L569.243408203125,56.536888122558594 L568.497314453125,56.120540618896484 L567.996337890625,55.983421325683594 M574.4521484375,55.68452835083008 L574.3941650390625,55.50544738769531 L574.2935180664062,55.37668228149414 L574.12890625,55.463951110839844 L573.9112548828125,55.95697021484375 L573.6509399414062,56.888526916503906 L573.40283203125,58.195556640625 L573.2393798828125,59.76161575317383 L573.2356567382812,61.441654205322266 L573.4093017578125,63.04145050048828 L573.7780151367188,64.3927001953125 L574.33203125,65.34412384033203 L575.0631103515625,65.77906036376953 L575.9417724609375,65.64630126953125 L576.9345703125,64.96503448486328 L577.9591064453125,63.82017517089844 L578.9371337890625,62.380149841308594 L579.7858276367188,60.86669158935547 L580.4505004882812,59.49279022216797 L580.8964233398438,58.41800308227539 L581.14453125,57.74858856201172 L581.210693359375,57.52814865112305 L581.1295166015625,57.77351760864258 L580.95361328125,58.49818420410156 L580.75390625,59.64714431762695 L580.616455078125,61.10092544555664 L580.6500244140625,62.67318344116211 L580.9186401367188,64.1363525390625 L581.4640502929688,65.2924575805664 L582.2960815429688,66.00981903076172 L583.3663330078125,66.20092010498047 L584.5924682617188,65.86454772949219 L585.8666381835938,65.03903198242188 L587.0485229492188,63.81407928466797 L588.0240478515625,62.319400787353516 L588.710693359375,60.700157165527344 L589.0418701171875,59.094818115234375 L589.0390625,57.667545318603516 L588.7810668945312,56.5347900390625 L588.4573974609375,55.80438232421875 L588.2108764648438,55.448184967041016 M592.8604125976562,55.93631362915039 L592.8674926757812,56.16687774658203 L592.863525390625,56.702884674072266 L592.8148193359375,57.60527038574219 L592.6831665039062,58.82730484008789 L592.4510498046875,60.262821197509766 L592.14306640625,61.780826568603516 L591.8281860351562,63.238853454589844 L591.5697631835938,64.5096206665039 L591.41943359375,65.47315216064453 L591.3968505859375,66.02653503417969 L591.492431640625,66.10852813720703 L591.7083740234375,65.71304321289062 L592.0379028320312,64.85701751708984 L592.4862060546875,63.640750885009766 L593.0769653320312,62.1910400390625 L593.8314819335938,60.64393997192383 L594.7485961914062,59.157798767089844 L595.7845458984375,57.87406921386719 L596.846923828125,56.8928337097168 L597.8544921875,56.315433502197266 L598.7265625,56.19615173339844 L599.4153442382812,56.54341125488281 L599.9036865234375,57.351898193359375 L600.1685791015625,58.559566497802734 L600.228759765625,60.0610237121582 L600.166015625,61.72455596923828 L600.0665283203125,63.40060043334961 L600.0687866210938,64.89031219482422 L600.2662353515625,66.02581024169922 L600.6724243164062,66.69781494140625 L601.1151123046875,66.96875762939453 L601.45751953125,66.99141693115234 M609.0469970703125,46.08122253417969 L609.0455322265625,45.781349182128906 L609.0421142578125,45.525611877441406 L609.0339965820312,45.555511474609375 L609.0038452148438,46.131431579589844 L608.9276733398438,47.29559326171875 L608.77880859375,48.982154846191406 L608.5798950195312,51.05966567993164 L608.3641357421875,53.41020965576172 L608.1810302734375,55.871337890625 L608.0582885742188,58.29758834838867 L607.993408203125,60.57125473022461 L607.967041015625,62.56554412841797 L607.9747924804688,64.17305755615234 L608.00830078125,65.32889556884766 L608.0493774414062,66.00462341308594 L608.084716796875,66.29692077636719 M603.7855224609375,57.593936920166016 L603.825439453125,57.327945709228516 L604.0504760742188,56.96937942504883 L604.5770263671875,56.61151885986328 L605.5416259765625,56.3902702331543 L606.923828125,56.315574645996094 L608.5955810546875,56.352378845214844 L610.0653076171875,56.42225646972656 L611.043212890625,56.48780059814453 M619.8990478515625,57.997032165527344 L619.7201538085938,57.86600875854492 L619.327880859375,57.69839859008789 L618.6741943359375,57.59223937988281 L617.7896728515625,57.69276809692383 L616.736083984375,58.0995979309082 L615.640869140625,58.8594856262207 L614.64111328125,59.952117919921875 L613.891845703125,61.29873275756836 L613.5243530273438,62.768245697021484 L613.6241455078125,64.19549560546875 L614.2086791992188,65.42149353027344 L615.2352294921875,66.31214904785156 L616.5882568359375,66.7730941772461 L618.1062622070312,66.74999237060547 L619.6141357421875,66.22488403320312 L620.9581909179688,65.21881103515625 L622.012939453125,63.81709289550781 L622.6983642578125,62.16061782836914 L622.986572265625,60.446537017822266 L622.8687133789062,58.869224548339844 L622.423583984375,57.5804443359375 L621.7618408203125,56.663780212402344 L621.1414794921875,56.132720947265625 L620.7191772460938,55.899322509765625 M627.73388671875,56.26386260986328 L627.66552734375,56.61883544921875 L627.5020751953125,57.34390640258789 L627.2239990234375,58.47736358642578 L626.8541870117188,59.93599319458008 L626.45166015625,61.607261657714844 L626.127685546875,63.34212112426758 L625.9893798828125,64.98081970214844 L626.092041015625,66.35855102539062 L626.4417724609375,67.33595275878906 L627.0003662109375,67.82569885253906 L627.7118530273438,67.76708221435547 L628.5463256835938,67.16475677490234 L629.458984375,66.08937072753906 L630.3770751953125,64.70081329345703 L631.1949462890625,63.22552490234375 L631.8287353515625,61.901756286621094 L632.2281494140625,60.898681640625 L632.39794921875,60.3130989074707 L632.384765625,60.16383361816406 L632.2752075195312,60.45768737792969 L632.1530151367188,61.18239212036133 L632.1238403320312,62.265289306640625 L632.2796630859375,63.55863952636719 L632.6793212890625,64.8729248046875 L633.3428344726562,65.99506378173828 L634.251953125,66.77446746826172 L635.337158203125,67.11722564697266 L636.492431640625,66.98602294921875 L637.5960693359375,66.37528228759766 L638.5428466796875,65.3395004272461 L639.25732421875,63.959171295166016 L639.6769409179688,62.334190368652344 L639.7913818359375,60.613590240478516 L639.6395874023438,58.97960662841797 L639.383056640625,57.73967361450195 L639.1614990234375,57.017356872558594 M645.0136108398438,58.795745849609375 L644.88232421875,59.459434509277344 L644.6617431640625,60.56288528442383 L644.386962890625,61.986324310302734 L644.1376342773438,63.451290130615234 L643.9532470703125,64.82669830322266 L643.8668823242188,65.99918365478516 L643.8703002929688,66.9027099609375 L643.933349609375,67.42517852783203 L644.04052734375,67.47883605957031 L644.204833984375,67.02701568603516 L644.44287109375,66.0787582397461 L644.799560546875,64.73617553710938 L645.296630859375,63.15052032470703 L645.930908203125,61.47753143310547 L646.69482421875,59.852806091308594 L647.588134765625,58.40568923950195 L648.5833129882812,57.22935485839844 L649.6617431640625,56.4071044921875 L650.7899169921875,55.9849967956543 L651.9080810546875,55.99197006225586 L652.941162109375,56.41282272338867 L653.81640625,57.212982177734375 L654.4517822265625,58.321659088134766 L654.8059692382812,59.64801788330078 L654.9091796875,61.08502960205078 L654.8292236328125,62.55446243286133 L654.6583862304688,63.977481842041016 L654.4811401367188,65.28187561035156 L654.34130859375,66.41061401367188 L654.252685546875,67.21807861328125 L654.213134765625,67.67171478271484 M656.957275390625,55.602577209472656 M656.7855834960938,58.13166809082031 L656.59619140625,58.8370361328125 L656.2521362304688,59.996437072753906 L655.7653198242188,61.48918151855469 L655.2275390625,63.04124450683594 L654.7259521484375,64.57726287841797 L654.332763671875,66.03026580810547 L654.1561279296875,67.3538589477539 L654.2531127929688,68.43792724609375 L654.6105346679688,69.20352935791016 L655.03857421875,69.63156127929688 L655.38037109375,69.7978286743164 " fill="none" stroke="black" stroke-linecap="round" stroke-width="2" /><path d="M0,0 M441.276611328125,106.79925537109375 L441.265625,107.15223693847656 L441.23187255859375,107.97834777832031 L441.1572570800781,109.41846466064453 L441.04364013671875,111.46549987792969 L440.9287414550781,114.0421371459961 L440.86639404296875,116.9674072265625 L440.9333801269531,120.00994873046875 L441.1837158203125,122.8692398071289 L441.607421875,125.28111267089844 L442.157470703125,127.02145385742188 L442.77398681640625,127.9560775756836 L443.41705322265625,128.02931213378906 L444.0968322753906,127.26376342773438 L444.82568359375,125.7323989868164 L445.5917663574219,123.63616180419922 L446.34625244140625,121.21744537353516 L447.0348815917969,118.74280548095703 L447.59918212890625,116.46992492675781 L448.0260009765625,114.60063171386719 L448.32257080078125,113.27405548095703 L448.50799560546875,112.60150909423828 L448.60723876953125,112.63359832763672 L448.6749267578125,113.37660217285156 L448.74273681640625,114.78993225097656 L448.88116455078125,116.75373077392578 L449.13751220703125,119.06470489501953 L449.5400085449219,121.46725463867188 L450.08538818359375,123.69718933105469 L450.74359130859375,125.51396179199219 L451.4503479003906,126.7453842163086 L452.16748046875,127.27875518798828 L452.86474609375,127.04937744140625 L453.544189453125,126.04270935058594 L454.2012023925781,124.31595611572266 L454.8244323730469,121.99954223632812 L455.38262939453125,119.30570220947266 L455.84136962890625,116.46249389648438 L456.1873779296875,113.68604278564453 L456.4109802246094,111.13959503173828 L456.50927734375,108.94962310791016 L456.5048828125,107.21668243408203 L456.4306335449219,106.00081634521484 L456.33990478515625,105.29881286621094 L456.2782897949219,105.0 M465.41632080078125,116.80429077148438 L465.16143798828125,116.40543365478516 L464.6618957519531,115.85507202148438 L463.89959716796875,115.37480926513672 L462.9309387207031,115.27913665771484 L461.8265380859375,115.72412872314453 L460.70098876953125,116.74179077148438 L459.6800537109375,118.23213195800781 L458.9051513671875,120.01842498779297 L458.4876708984375,121.87911224365234 L458.47137451171875,123.57110595703125 L458.8478088378906,124.88546752929688 L459.544921875,125.65669250488281 L460.4501953125,125.79574584960938 L461.4632263183594,125.28376007080078 L462.485107421875,124.17557525634766 L463.4263610839844,122.60408020019531 L464.21624755859375,120.77368927001953 L464.8106384277344,118.93631744384766 L465.2073669433594,117.32575225830078 L465.44219970703125,116.1136474609375 L465.5541687011719,115.39765930175781 L465.582763671875,115.23395538330078 L465.55926513671875,115.65892028808594 L465.5162048339844,116.69042205810547 L465.5106201171875,118.25521850585938 L465.59344482421875,120.18182373046875 L465.8131408691406,122.2383804321289 L466.2003479003906,124.18453216552734 L466.75201416015625,125.81824493408203 L467.4434814453125,126.98360443115234 L468.2511901855469,127.5604476928711 L469.1446838378906,127.45512390136719 L470.1026916503906,126.63449096679688 L471.10870361328125,125.147705078125 L472.11798095703125,123.09703063964844 L473.08245849609375,120.63195037841797 L473.9565124511719,117.93122100830078 L474.6949768066406,115.17635345458984 L475.25048828125,112.57728576660156 L475.61517333984375,110.35616302490234 L475.7732238769531,108.66869354248047 L475.739501953125,107.638916015625 L475.541259765625,107.33819580078125 L475.2110290527344,107.80204772949219 L474.759765625,109.05107879638672 L474.2521667480469,111.03461456298828 L473.7622985839844,113.58334350585938 L473.3971252441406,116.4584732055664 L473.257568359375,119.36830139160156 L473.4132995605469,122.02471923828125 L473.8529052734375,124.2137680053711 L474.57904052734375,125.70146179199219 L475.5118408203125,126.36559295654297 L476.54608154296875,126.23109436035156 L477.41192626953125,125.7063980102539 L477.9657897949219,125.16768646240234 M481.18536376953125,107.76624298095703 L481.24566650390625,107.93314361572266 L481.3237609863281,108.51901245117188 L481.38568115234375,109.72381591796875 L481.3890075683594,111.6048583984375 L481.3372497558594,114.02372741699219 L481.2279052734375,116.7446517944336 L481.1070861816406,119.48358917236328 L481.0209045410156,121.96984100341797 L481.0015563964844,123.98658752441406 L481.0926513671875,125.3365478515625 L481.2373352050781,126.03810119628906 L481.36492919921875,126.26981353759766 M486.3558349609375,115.71766662597656 L485.7062683105469,115.86531829833984 L484.5880126953125,116.22351837158203 L483.1261291503906,116.8349380493164 L481.6506042480469,117.66429138183594 L480.4000244140625,118.6355209350586 L479.5767822265625,119.6446762084961 L479.2900390625,120.59730529785156 L479.5869140625,121.41436767578125 L480.44537353515625,122.03231048583984 L481.77691650390625,122.414794921875 L483.4776611328125,122.58401489257812 L485.4018859863281,122.59635925292969 L487.37908935546875,122.51895141601562 L489.23602294921875,122.3963851928711 L490.84027099609375,122.24510955810547 L492.10479736328125,121.9980239868164 L493.0263977050781,121.61048889160156 L493.63385009765625,121.06494140625 L493.97320556640625,120.53417205810547 L494.1185607910156,120.14837646484375 M493.4754638671875,117.13426208496094 L493.4837341308594,117.26924896240234 L493.5226135253906,117.62263488769531 L493.5885925292969,118.24815368652344 L493.6739196777344,119.12342834472656 L493.77301025390625,120.15882110595703 L493.89715576171875,121.24305725097656 L494.08050537109375,122.26134490966797 L494.3559875488281,123.10941314697266 L494.70452880859375,123.7021255493164 L495.02099609375,124.02789306640625 L495.2359313964844,124.145751953125 M493.70440673828125,108.37112426757812 L493.6490478515625,108.32464599609375 L493.6160888671875,108.39141845703125 L493.61163330078125,108.53485107421875 L493.64190673828125,108.71835327148438 M499.2398376464844,116.74449157714844 L499.24853515625,116.93074798583984 L499.2440185546875,117.3902587890625 L499.2180480957031,118.19792175292969 L499.1618347167969,119.31444549560547 L499.0935363769531,120.61100006103516 L499.04803466796875,121.9144058227539 L499.044921875,123.0580825805664 L499.1059265136719,123.9090347290039 L499.2489318847656,124.3676986694336 L499.4857482910156,124.35824584960938 L499.8471374511719,123.83122253417969 L500.3729553222656,122.79762268066406 L501.08831787109375,121.36102294921875 L502.0057678222656,119.72039031982422 L503.09661865234375,118.10232543945312 L504.2994384765625,116.71654510498047 L505.52362060546875,115.701904296875 L506.69073486328125,115.13514709472656 L507.73095703125,115.04631805419922 L508.599365234375,115.45439147949219 L509.2648010253906,116.32903289794922 L509.71954345703125,117.5912857055664 L509.9618225097656,119.09542846679688 L510.093505859375,120.67681121826172 L510.22412109375,122.14457702636719 L510.44952392578125,123.35974884033203 L510.7118835449219,124.1770248413086 L510.9354248046875,124.60277557373047 M519.7691650390625,118.56718444824219 L519.703857421875,118.02447509765625 L519.45849609375,117.27169036865234 L518.9181518554688,116.52452850341797 L518.0443115234375,116.10848999023438 L516.8968505859375,116.10948944091797 L515.618408203125,116.54397583007812 L514.4217529296875,117.34375 L513.519775390625,118.40931701660156 L513.0694580078125,119.58028411865234 L513.1752319335938,120.68315124511719 L513.8113403320312,121.54399108886719 L514.8756103515625,122.04745483398438 L516.224365234375,122.14566040039062 L517.704833984375,121.84442901611328 L519.1583251953125,121.20262908935547 L520.458984375,120.31636810302734 L521.4815673828125,119.3041763305664 L522.1655883789062,118.2983169555664 L522.5191650390625,117.40624237060547 L522.6054077148438,116.70643615722656 L522.5060424804688,116.25688171386719 L522.3114013671875,116.11397552490234 L522.1012573242188,116.33904266357422 L521.9422607421875,116.97760772705078 L521.9075317382812,118.02861785888672 L522.0337524414062,119.45289611816406 L522.3159790039062,121.17605590820312 L522.707275390625,123.1113052368164 L523.1437377929688,125.17009735107422 L523.53369140625,127.2478256225586 L523.8070678710938,129.24107360839844 L523.8934936523438,131.05491638183594 L523.7308349609375,132.60659790039062 L523.2630615234375,133.83494567871094 L522.480712890625,134.70913696289062 L521.3984375,135.2021942138672 L520.0913696289062,135.328125 L518.664794921875,135.11793518066406 L517.2442626953125,134.63992309570312 L515.9320068359375,133.95431518554688 L514.83251953125,133.15936279296875 L513.997314453125,132.34226989746094 L513.4746704101562,131.69384765625 L513.2216796875,131.29522705078125 M547.3192138671875,110.49185180664062 L547.0435180664062,109.9651107788086 L546.5409545898438,109.1902847290039 L545.805419921875,108.35704803466797 L544.8991088867188,107.76551055908203 L543.8543701171875,107.54867553710938 L542.7224731445312,107.7992935180664 L541.5809936523438,108.55277252197266 L540.520751953125,109.8484878540039 L539.6234741210938,111.65535736083984 L538.9566650390625,113.87175750732422 L538.5618286132812,116.35498046875 L538.4586181640625,118.9308090209961 L538.6431884765625,121.42579650878906 L539.074462890625,123.6875991821289 L539.6822509765625,125.59536743164062 L540.3641967773438,127.02246856689453 L540.9923095703125,127.90105438232422 L541.4794311523438,128.2346954345703 L541.7749633789062,128.21826171875 L541.904296875,128.06455993652344 M534.5012817382812,118.80436706542969 L534.6499633789062,118.8001937866211 L535.10986328125,118.7901382446289 L536.00537109375,118.76719665527344 L537.4374389648438,118.72026062011719 L539.3095703125,118.64463806152344 L541.4242553710938,118.54216766357422 L543.21630859375,118.44700622558594 L544.3713989257812,118.38169860839844 M551.7760009765625,117.67060089111328 L551.1218872070312,117.88127899169922 L550.0621948242188,118.33233642578125 L548.7533569335938,119.07139587402344 L547.5262451171875,120.0447769165039 L546.5645751953125,121.16117858886719 L545.9955444335938,122.26924896240234 L545.8809204101562,123.2225112915039 L546.2413330078125,123.87847137451172 L547.0301513671875,124.13958740234375 L548.1500244140625,123.93269348144531 L549.4651489257812,123.25575256347656 L550.7974243164062,122.17539978027344 L551.9891357421875,120.83513641357422 L552.9290161132812,119.42732238769531 L553.5654907226562,118.15340423583984 L553.9296875,117.14315032958984 L554.0923461914062,116.4912338256836 L554.120849609375,116.2419662475586 L554.07861328125,116.41131591796875 L554.0044555664062,117.0093765258789 L553.9275512695312,118.01707458496094 L553.902099609375,119.31403350830078 L553.97998046875,120.74803924560547 L554.2386474609375,122.1341323852539 L554.7178344726562,123.29619598388672 L555.387451171875,124.12873077392578 L556.0245361328125,124.61358642578125 L556.475341796875,124.81326293945312 M564.6929931640625,116.0409164428711 L564.392822265625,115.75263214111328 L563.7484741210938,115.42955780029297 L562.7208251953125,115.24060821533203 L561.4375,115.35868835449219 L560.1138305664062,115.7763671875 L559.0184936523438,116.41475677490234 L558.3782958984375,117.17095947265625 L558.3345336914062,117.98593139648438 L558.9161376953125,118.81793975830078 L560.0557250976562,119.63119506835938 L561.5807495117188,120.41915893554688 L563.2365112304688,121.17130279541016 L564.7445678710938,121.89247131347656 L565.8477783203125,122.57271575927734 L566.3869018554688,123.19330596923828 L566.3222045898438,123.72569274902344 L565.683837890625,124.14483642578125 L564.5725708007812,124.42225646972656 L563.15673828125,124.56462097167969 L561.666259765625,124.53775787353516 L560.351318359375,124.31858825683594 L559.4170532226562,123.91006469726562 L558.9098510742188,123.47596740722656 L558.7316284179688,123.13945770263672 M571.9003295898438,105.67349243164062 L571.9511108398438,105.83690643310547 L572.002197265625,106.28125 L572.0230102539062,107.12053680419922 L571.9901733398438,108.38700866699219 L571.9253540039062,110.04073333740234 L571.8553466796875,111.99856567382812 L571.8287963867188,114.13851165771484 L571.8671264648438,116.34956359863281 L571.9775390625,118.47624206542969 L572.144775390625,120.36097717285156 L572.3052978515625,121.72167205810547 L572.4141845703125,122.48966217041016 M567.5910034179688,115.80219268798828 L567.9341430664062,115.67792510986328 L568.6992797851562,115.48887634277344 L569.9559326171875,115.27220153808594 L571.6727294921875,115.09426879882812 L573.6903076171875,114.9726333618164 L575.790283203125,114.91145324707031 L577.4783935546875,114.89104461669922 L578.520751953125,114.8914794921875 " fill="none" stroke="black" stroke-linecap="round" stroke-width="2" /><path d="M0,0 M461.02130126953125,167.98826599121094 L461.0516357421875,168.5111541748047 L461.11651611328125,169.51824951171875 L461.22052001953125,171.04074096679688 L461.35369873046875,172.975341796875 L461.4986572265625,175.26620483398438 L461.6390380859375,177.82611083984375 L461.7783508300781,180.54559326171875 L461.940185546875,183.2797088623047 L462.1460266113281,185.86009216308594 L462.4031677246094,188.10813903808594 L462.69464111328125,189.90036010742188 L462.96661376953125,191.0766143798828 L463.170166015625,191.55279541015625 L463.28533935546875,191.3717803955078 L463.3236083984375,190.88682556152344 L463.31890869140625,190.4052734375 M453.632080078125,168.79592895507812 L453.79315185546875,168.59442138671875 L454.2782287597656,168.25027465820312 L455.22796630859375,167.7882843017578 L456.69903564453125,167.28912353515625 L458.6272277832031,166.79104614257812 L460.8923645019531,166.32785034179688 L463.3382263183594,165.9129638671875 L465.81292724609375,165.5672149658203 L468.11065673828125,165.30029296875 L470.05755615234375,165.12344360351562 L471.399658203125,165.03045654296875 L472.11309814453125,165.0 M457.2851257324219,180.7652587890625 L457.7789001464844,180.8638916015625 L458.77825927734375,180.88340759277344 L460.2944641113281,180.7364044189453 L462.21539306640625,180.37432861328125 L464.37017822265625,179.8992919921875 L466.5429382324219,179.4364776611328 L468.2591247558594,179.10560607910156 L469.3150634765625,178.92617797851562 M476.36083984375,179.49981689453125 L476.25006103515625,179.34254455566406 L475.9817199707031,179.1000518798828 L475.49273681640625,178.86105346679688 L474.76605224609375,178.7981719970703 L473.82708740234375,179.05908203125 L472.7549133300781,179.7516632080078 L471.6719970703125,180.88539123535156 L470.713623046875,182.36062622070312 L470.0012512207031,183.99447631835938 L469.6221618652344,185.57408142089844 L469.6424255371094,186.88565063476562 L470.0760498046875,187.7638397216797 L470.8929443359375,188.09164428710938 L472.0066833496094,187.8131561279297 L473.2793273925781,186.95614624023438 L474.53387451171875,185.63356018066406 L475.63623046875,184.01341247558594 L476.4903564453125,182.30128479003906 L477.06170654296875,180.68685913085938 L477.38677978515625,179.3214569091797 L477.52435302734375,178.32601928710938 L477.528564453125,177.78594970703125 L477.468505859375,177.74661254882812 L477.40203857421875,178.22315979003906 L477.38018798828125,179.19180297851562 L477.4639587402344,180.5602569580078 L477.6593322753906,182.18875122070312 L477.9891357421875,183.94049072265625 L478.4473876953125,185.64773559570312 L479.0113830566406,187.16500854492188 L479.5206298828125,188.2659912109375 L479.8785400390625,188.8882598876953 M487.91107177734375,178.40176391601562 L487.6954650878906,178.1680145263672 L487.2342834472656,177.90963745117188 L486.48321533203125,177.78860473632812 L485.5010681152344,178.01380920410156 L484.39862060546875,178.65225219726562 L483.3162536621094,179.6962432861328 L482.425048828125,181.05223083496094 L481.8605041503906,182.601806640625 L481.72406005859375,184.17950439453125 L482.10211181640625,185.62306213378906 L483.025146484375,186.7771759033203 L484.4591979980469,187.53363037109375 L486.30450439453125,187.82850646972656 L488.3756408691406,187.65533447265625 L490.47161865234375,187.0482635498047 L492.4248962402344,186.0802764892578 L494.0860595703125,184.8265380859375 L495.3782653808594,183.38890075683594 L496.2476806640625,181.86270141601562 L496.657470703125,180.3620147705078 L496.6144104003906,179.00828552246094 L496.16827392578125,177.93873596191406 L495.3797912597656,177.25326538085938 L494.3714294433594,177.04745483398438 L493.25970458984375,177.3431396484375 L492.1739501953125,178.12973022460938 L491.2413635253906,179.3249969482422 L490.5909423828125,180.82005310058594 L490.3061218261719,182.4505157470703 L490.4548645019531,184.06787109375 L491.0254211425781,185.51173400878906 L492.03851318359375,186.64202880859375 L493.41510009765625,187.3586883544922 L495.0311279296875,187.65223693847656 L496.43328857421875,187.6600799560547 L497.3617248535156,187.55555725097656 M505.23089599609375,176.4932403564453 L504.8334655761719,176.3160858154297 L504.142578125,176.13070678710938 L503.20477294921875,176.0579376220703 L502.2052307128906,176.23207092285156 L501.3003234863281,176.667236328125 L500.6500549316406,177.31365966796875 L500.397705078125,178.08401489257812 L500.66162109375,178.90333557128906 L501.4593200683594,179.70281982421875 L502.74322509765625,180.4488525390625 L504.39422607421875,181.1407470703125 L506.21258544921875,181.80604553222656 L507.9598083496094,182.46812438964844 L509.40399169921875,183.128173828125 L510.35150146484375,183.7662811279297 L510.7038269042969,184.36160278320312 L510.4573669433594,184.88722229003906 L509.6685485839844,185.35134887695312 L508.44683837890625,185.75192260742188 L506.95147705078125,186.0814666748047 L505.398681640625,186.3388671875 L504.0115661621094,186.5314483642578 L503.036376953125,186.64895629882812 L502.51861572265625,186.71084594726562 M522.6746215820312,176.4607391357422 L522.716796875,176.7546844482422 L522.811279296875,177.39688110351562 L522.9597778320312,178.48532104492188 L523.1322021484375,180.02247619628906 L523.2825317382812,182.00088500976562 L523.3753662109375,184.35047912597656 L523.3983154296875,186.9816131591797 L523.3701782226562,189.75271606445312 L523.3163452148438,192.48959350585938 L523.2597045898438,194.97169494628906 L523.2166137695312,197.0089569091797 L523.1922607421875,198.4305419921875 L523.1797485351562,199.13414001464844 L523.1757202148438,199.07540893554688 L523.1591186523438,198.2568359375 L523.1370239257812,196.73045349121094 L523.12060546875,194.64581298828125 L523.1157836914062,192.17697143554688 L523.1248779296875,189.5031280517578 L523.1520385742188,186.7846221923828 L523.1972045898438,184.1385040283203 L523.299072265625,181.66030883789062 L523.5046997070312,179.44273376464844 L523.8796997070312,177.55850219726562 L524.48828125,176.06256103515625 L525.3682250976562,175.007080078125 L526.5054321289062,174.43626403808594 L527.83154296875,174.37132263183594 L529.2367553710938,174.79666137695312 L530.5990600585938,175.6521759033203 L531.806640625,176.83218383789062 L532.760986328125,178.19937133789062 L533.3714599609375,179.61619567871094 L533.5623168945312,180.96385192871094 L533.2724609375,182.15380859375 L532.4453735351562,183.1221923828125 L531.1627807617188,183.83871459960938 L529.605224609375,184.29454040527344 L528.2470703125,184.52471923828125 L527.3704833984375,184.60391235351562 M539.8489379882812,177.70114135742188 L539.6741943359375,177.3151092529297 L539.3369140625,176.7410888671875 L538.8143310546875,176.12413024902344 L538.1388549804688,175.70826721191406 L537.3294677734375,175.6071319580078 L536.4325561523438,175.89901733398438 L535.5429077148438,176.60977172851562 L534.7613525390625,177.71466064453125 L534.1954345703125,179.10545349121094 L533.9363403320312,180.6059112548828 L534.032958984375,181.9899444580078 L534.4765625,183.05223083496094 L535.2345581054688,183.6524658203125 L536.2261962890625,183.71766662597656 L537.342529296875,183.2417755126953 L538.4572143554688,182.28297424316406 L539.4628295898438,180.96551513671875 L540.260986328125,179.46737670898438 L540.812744140625,178.001708984375 L541.1227416992188,176.7490234375 L541.2280883789062,175.85328674316406 L541.1829833984375,175.3839569091797 L541.0675659179688,175.3775177001953 L540.9376831054688,175.8304901123047 L540.8566284179688,176.7154541015625 L540.8765869140625,177.9322509765625 L541.0358276367188,179.34548950195312 L541.3857421875,180.7555389404297 L541.941162109375,181.9684295654297 L542.6634521484375,182.8411407470703 L543.3294067382812,183.33779907226562 L543.7900390625,183.5330810546875 M550.7265625,173.42855834960938 L550.3676147460938,173.19163513183594 L549.7367553710938,172.95175170898438 L548.8677368164062,172.86341857910156 L547.9290771484375,173.08895874023438 L547.0587768554688,173.62684631347656 L546.423095703125,174.4048309326172 L546.1664428710938,175.3270721435547 L546.40234375,176.32034301757812 L547.13671875,177.3040771484375 L548.3121337890625,178.23094177246094 L549.7843627929688,179.0870361328125 L551.3516235351562,179.87710571289062 L552.80419921875,180.62673950195312 L553.9545288085938,181.34832763671875 L554.6412963867188,182.01319885253906 L554.790283203125,182.599609375 L554.388427734375,183.0769500732422 L553.4822998046875,183.42538452148438 L552.1948852539062,183.64437866210938 L550.7027587890625,183.72421264648438 L549.2168579101562,183.65744018554688 L547.9446411132812,183.4716796875 L547.0792846679688,183.26124572753906 L546.63330078125,183.0994873046875 M559.9568481445312,173.40126037597656 L559.687255859375,173.1351776123047 L559.1347045898438,172.7971649169922 L558.2867431640625,172.52333068847656 L557.255126953125,172.48179626464844 L556.190673828125,172.69869995117188 L555.2933349609375,173.16061401367188 L554.7268676757812,173.79876708984375 L554.62060546875,174.55787658691406 L555.03857421875,175.36758422851562 L555.9793090820312,176.1580352783203 L557.3662719726562,176.88404846191406 L559.0601806640625,177.541259765625 L560.8736572265625,178.1387176513672 L562.6090087890625,178.70050048828125 L564.0910034179688,179.23550415039062 L565.1875,179.7375030517578 L565.8119506835938,180.20594787597656 L565.9351806640625,180.65904235839844 L565.5682983398438,181.10134887695312 L564.7600708007812,181.537109375 L563.609619140625,181.95819091796875 L562.2276000976562,182.33404541015625 L560.747314453125,182.63864135742188 L559.2777099609375,182.8501434326172 L557.9189453125,182.95333862304688 L556.744140625,182.96266174316406 L555.9099731445312,182.92637634277344 L555.440185546875,182.88363647460938 " fill="none" stroke="black" stroke-linecap="round" stroke-width="2" /><path d="M0,0 M403.8116149902344,229.37303161621094 L403.77459716796875,229.3912353515625 L403.664794921875,229.58143615722656 L403.4263916015625,230.1100616455078 L403.0256652832031,231.12391662597656 L402.44720458984375,232.66824340820312 L401.71441650390625,234.6927032470703 L400.8658142089844,237.08978271484375 L399.9385070800781,239.6950225830078 L398.97125244140625,242.3232421875 L398.0341796875,244.78366088867188 L397.2196044921875,246.87258911132812 L396.6893615722656,248.26112365722656 L396.5550231933594,248.7330780029297 L396.8394470214844,248.24334716796875 L397.29620361328125,247.3185577392578 L397.69873046875,246.4691925048828 M403.9344787597656,227.90707397460938 L404.06298828125,227.65208435058594 L404.27764892578125,227.5113067626953 L404.5780334472656,227.7359619140625 L404.9419250488281,228.56996154785156 L405.3841857910156,230.00863647460938 L405.8765563964844,231.962158203125 L406.37542724609375,234.2853546142578 L406.83184814453125,236.8689422607422 L407.2250671386719,239.5567169189453 L407.5441589355469,242.15338134765625 L407.80377197265625,244.45010375976562 L408.0002136230469,246.19615173339844 L408.1238708496094,247.22962951660156 L408.1735534667969,247.538818359375 L408.17803955078125,247.41000366210938 L408.15826416015625,247.14305114746094 M401.0826416015625,236.67213439941406 L401.3111877441406,236.7072296142578 L401.8553161621094,236.7805938720703 L402.7876892089844,236.88787841796875 L404.1091613769531,236.99632263183594 L405.7153625488281,237.07676696777344 L407.4208984375,237.09999084472656 L408.8039245605469,237.08120727539062 L409.6661682128906,237.0496063232422 M413.4464111328125,235.67181396484375 L413.46875,236.1118621826172 L413.46185302734375,236.95938110351562 L413.4061279296875,238.22726440429688 L413.28778076171875,239.79298400878906 L413.1417541503906,241.55645751953125 L412.99896240234375,243.36709594726562 L412.885498046875,245.0504913330078 L412.8167724609375,246.43875122070312 L412.8104553222656,247.376220703125 L412.86273193359375,247.75823974609375 L412.97076416015625,247.538818359375 L413.1413879394531,246.72476196289062 L413.3845520019531,245.37484741210938 L413.74658203125,243.64537048339844 L414.2960205078125,241.71815490722656 L415.09185791015625,239.792236328125 L416.13775634765625,238.0456085205078 L417.38482666015625,236.62405395507812 L418.7145080566406,235.63034057617188 L420.0118408203125,235.1611328125 L421.18701171875,235.2678985595703 L422.1813049316406,235.9488067626953 L422.94537353515625,237.14663696289062 L423.4441223144531,238.75216674804688 L423.66448974609375,240.6107940673828 L423.6273193359375,242.55023193359375 L423.40582275390625,244.40794372558594 L423.1302185058594,245.99508666992188 L422.9339599609375,247.17201232910156 L422.9072570800781,247.87086486816406 L423.00408935546875,248.16860961914062 L423.1321716308594,248.2167510986328 M434.0916748046875,239.2940216064453 L434.001708984375,238.86050415039062 L433.71063232421875,238.25326538085938 L433.133056640625,237.66334533691406 L432.2376708984375,237.37057495117188 L431.08746337890625,237.475830078125 L429.8038330078125,238.01039123535156 L428.5533447265625,238.92872619628906 L427.4749755859375,240.16908264160156 L426.703369140625,241.6304168701172 L426.3189392089844,243.18556213378906 L426.3660583496094,244.6787872314453 L426.8397216796875,245.95858764648438 L427.6949462890625,246.87640380859375 L428.83624267578125,247.30564880371094 L430.15869140625,247.1497039794922 L431.5522766113281,246.36805725097656 L432.9056396484375,244.9652099609375 L434.137451171875,243.0187530517578 L435.19232177734375,240.66014099121094 L436.0488586425781,238.06593322753906 L436.72943115234375,235.42166137695312 L437.2693176269531,232.91055297851562 L437.68206787109375,230.69700622558594 L437.99407958984375,228.8974609375 L438.2041320800781,227.5892791748047 L438.31219482421875,226.83164978027344 L438.3193054199219,226.66854858398438 L438.2336730957031,227.14166259765625 L438.07647705078125,228.29983520507812 L437.887939453125,230.1010284423828 L437.6974792480469,232.4300994873047 L437.5395202636719,235.1118621826172 L437.43365478515625,237.94174194335938 L437.4069519042969,240.72598266601562 L437.479248046875,243.306640625 L437.65533447265625,245.53846740722656 L437.9059753417969,247.30538940429688 L438.17755126953125,248.55027770996094 L438.41259765625,249.3083038330078 L438.598876953125,249.621826171875 L438.7462463378906,249.56478881835938 L438.8976745605469,249.2232666015625 L439.0359191894531,248.80813598632812 L439.1383972167969,248.472412109375 M454.67608642578125,228.4559326171875 L454.669677734375,228.49215698242188 L454.6415710449219,228.72119140625 L454.5680236816406,229.28353881835938 L454.44482421875,230.2701873779297 L454.2926940917969,231.66171264648438 L454.1330261230469,233.3928680419922 L453.9783630371094,235.38119506835938 L453.8271484375,237.5286407470703 L453.64434814453125,239.7257537841797 L453.423828125,241.84536743164062 L453.18292236328125,243.76181030273438 L452.9635009765625,245.35121154785156 L452.8110656738281,246.53070068359375 L452.7531433105469,247.25460815429688 L452.7572937011719,247.59054565429688 L452.7886962890625,247.6727752685547 M460.6431884765625,225.0 L460.690673828125,225.38619995117188 L460.7091369628906,226.13430786132812 L460.6400146484375,227.22059631347656 L460.45452880859375,228.50482177734375 L460.20928955078125,229.84393310546875 L459.9640808105469,231.09181213378906 L459.7881774902344,232.02354431152344 L459.7012634277344,232.56893920898438 M462.62249755859375,239.1102752685547 L462.7486877441406,239.31900024414062 L462.9654541015625,239.70989990234375 L463.23175048828125,240.3034210205078 L463.4613952636719,241.07949829101562 L463.6131286621094,242.05471801757812 L463.66357421875,243.20628356933594 L463.63885498046875,244.4693603515625 L463.57452392578125,245.71592712402344 L463.4975280761719,246.8065185546875 L463.4288330078125,247.61386108398438 L463.40484619140625,248.0352325439453 L463.4386291503906,247.99913024902344 L463.5691223144531,247.4604034423828 L463.8389587402344,246.41253662109375 L464.28643798828125,244.94241333007812 L464.94256591796875,243.21995544433594 L465.8130187988281,241.45909118652344 L466.8421630859375,239.88026428222656 L467.9490966796875,238.6531219482422 L469.04656982421875,237.87738037109375 L470.0540771484375,237.6088104248047 L470.90582275390625,237.86386108398438 L471.5573425292969,238.62013244628906 L471.9747314453125,239.8177490234375 L472.15142822265625,241.33380126953125 L472.130859375,242.96084594726562 L472.002197265625,244.47169494628906 L471.8503112792969,245.67135620117188 L471.74859619140625,246.4202117919922 L471.7430114746094,246.65975952148438 L471.8670959472656,246.38711547851562 L472.15411376953125,245.60292053222656 L472.6664733886719,244.3800048828125 L473.4329833984375,242.85716247558594 L474.4549560546875,241.2117919921875 L475.6886901855469,239.62936401367188 L477.04559326171875,238.2690887451172 L478.41796875,237.22921752929688 L479.71807861328125,236.58706665039062 L480.87286376953125,236.39088439941406 L481.84783935546875,236.66722106933594 L482.61871337890625,237.40045166015625 L483.15557861328125,238.5287322998047 L483.4573974609375,239.96148681640625 L483.5313720703125,241.58294677734375 L483.4285888671875,243.26275634765625 L483.2314147949219,244.87843322753906 L483.0083923339844,246.29759216308594 L482.80322265625,247.39854431152344 L482.6473693847656,248.1232147216797 L482.5450744628906,248.4961700439453 L482.491455078125,248.6203155517578 M499.61651611328125,226.7916717529297 L499.56451416015625,227.03602600097656 L499.4566955566406,227.63197326660156 L499.2887268066406,228.69166564941406 L499.065673828125,230.22555541992188 L498.8022155761719,232.18048095703125 L498.4993896484375,234.45199584960938 L498.1708679199219,236.90701293945312 L497.84564208984375,239.37034606933594 L497.55987548828125,241.64373779296875 L497.32940673828125,243.5453338623047 L497.1768798828125,244.94744873046875 L497.11907958984375,245.77093505859375 L497.1915283203125,245.9836883544922 L497.4277648925781,245.58587646484375 L497.8686218261719,244.61007690429688 L498.5149841308594,243.16050720214844 L499.3524475097656,241.41787719726562 L500.3404846191406,239.5875701904297 L501.432861328125,237.8735809326172 L502.5705871582031,236.4578857421875 L503.70806884765625,235.48316955566406 L504.7818908691406,235.05075073242188 L505.7293395996094,235.22219848632812 L506.4874572753906,235.99220275878906 L506.9999084472656,237.29164123535156 L507.2357177734375,238.9978485107422 L507.1984558105469,240.95343017578125 L506.9510803222656,242.9835662841797 L506.6048278808594,244.8916015625 L506.2902526855469,246.50660705566406 L506.0867614746094,247.6183319091797 L506.0039978027344,248.20803833007812 M515.6179809570312,237.86508178710938 L515.50634765625,237.52914428710938 L515.2227172851562,237.09825134277344 L514.6968994140625,236.75363159179688 L513.929931640625,236.74891662597656 L512.9857177734375,237.1964569091797 L511.9608459472656,238.12451171875 L511.0084228515625,239.46351623535156 L510.2632751464844,241.09466552734375 L509.8387145996094,242.8232421875 L509.81610107421875,244.43824768066406 L510.2281799316406,245.76141357421875 L511.04986572265625,246.65115356445312 L512.2105102539062,247.00807189941406 L513.5966186523438,246.78700256347656 L515.0706787109375,245.9952850341797 L516.4527587890625,244.72059631347656 L517.5748901367188,243.12794494628906 L518.2943115234375,241.42498779296875 L518.5440673828125,239.7928009033203 L518.3465576171875,238.3822021484375 L517.8225708007812,237.29342651367188 L517.1273803710938,236.5670623779297 L516.5213623046875,236.1783447265625 L516.1317749023438,236.03732299804688 M520.8722534179688,235.9024200439453 L520.8731689453125,236.42489624023438 L520.8460693359375,237.38726806640625 L520.7757568359375,238.76589965820312 L520.6515502929688,240.3830108642578 L520.4916381835938,242.11123657226562 L520.3267822265625,243.78439331054688 L520.1773681640625,245.23870849609375 L520.068359375,246.3056640625 L520.02685546875,246.85995483398438 L520.0687255859375,246.84703063964844 L520.2125244140625,246.2747802734375 L520.4840087890625,245.19818115234375 L520.9146118164062,243.74050903320312 L521.5280151367188,242.05911254882812 L522.3359375,240.33937072753906 L523.309814453125,238.7725067138672 L524.3716430664062,237.5184326171875 L525.4326782226562,236.695068359375 L526.41748046875,236.3892822265625 L527.2569580078125,236.6263427734375 L527.9070434570312,237.38690185546875 L528.34326171875,238.60069274902344 L528.5477294921875,240.12884521484375 L528.5423583984375,241.7620086669922 L528.380615234375,243.28089904785156 L528.140380859375,244.48361206054688 L527.8972778320312,245.23793029785156 L527.7493286132812,245.48361206054688 L527.776123046875,245.1957550048828 L528.041259765625,244.3650360107422 L528.5867919921875,243.06195068359375 L529.418701171875,241.4402618408203 L530.4715576171875,239.7159423828125 L531.6775512695312,238.13150024414062 L532.92431640625,236.8738555908203 L534.0919799804688,236.04991149902344 L535.084716796875,235.7235870361328 L535.8235473632812,235.91567993164062 L536.2427978515625,236.604248046875 L536.3349609375,237.74539184570312 L536.1204833984375,239.2357940673828 L535.6737060546875,240.93357849121094 L535.1142578125,242.68992614746094 L534.5872192382812,244.30419921875 L534.213134765625,245.58372497558594 L534.0562744140625,246.40834045410156 L534.0565185546875,246.8013458251953 L534.1234130859375,246.8966064453125 M537.2792358398438,244.1219482421875 L537.67333984375,243.91650390625 L538.3971557617188,243.519775390625 L539.4212036132812,242.9097442626953 L540.601806640625,242.12338256835938 L541.8359375,241.19166564941406 L542.9902954101562,240.16046142578125 L543.9466552734375,239.09510803222656 L544.5838012695312,238.07882690429688 L544.8162841796875,237.19956970214844 L544.6209106445312,236.55223083496094 L544.0303955078125,236.2334747314453 L543.115478515625,236.31495666503906 L541.9952392578125,236.84373474121094 L540.803466796875,237.80079650878906 L539.713134765625,239.11627197265625 L538.8958740234375,240.66314697265625 L538.4905395507812,242.28955078125 L538.5823364257812,243.83485412597656 L539.1719970703125,245.16456604003906 L540.2404174804688,246.13694763183594 L541.6925048828125,246.68109130859375 L543.3668212890625,246.79754638671875 L544.8007202148438,246.66949462890625 L545.7381591796875,246.4808349609375 M549.5297241210938,240.11207580566406 L549.8970947265625,239.9490509033203 L550.6887817382812,239.6956329345703 L551.9260864257812,239.4003143310547 L553.48388671875,239.14862060546875 L555.1485595703125,238.96299743652344 L556.727783203125,238.84335327148438 L557.9118041992188,238.77603149414062 L558.6052856445312,238.7441864013672 M563.0802001953125,228.73838806152344 L563.1005249023438,228.84860229492188 L563.0863037109375,229.25108337402344 L562.9749145507812,230.10928344726562 L562.7103271484375,231.48211669921875 L562.2948608398438,233.29100036621094 L561.7636108398438,235.38636779785156 L561.1765747070312,237.5855255126953 L560.6055297851562,239.71253967285156 L560.1098022460938,241.60845947265625 L559.7261962890625,243.1366729736328 L559.481689453125,244.2018585205078 L559.376708984375,244.7440185546875 L559.3946533203125,244.74656677246094 L559.542724609375,244.21495056152344 L559.8552856445312,243.20396423339844 L560.367919921875,241.83920288085938 L561.1226806640625,240.29852294921875 L562.1298828125,238.7584686279297 L563.342041015625,237.39697265625 L564.6787109375,236.35850524902344 L566.0283813476562,235.76300048828125 L567.2765502929688,235.67880249023438 L568.3306274414062,236.1186981201172 L569.1174926757812,237.00779724121094 L569.581298828125,238.23321533203125 L569.671875,239.64930725097656 L569.3654174804688,241.11508178710938 L568.659423828125,242.48301696777344 L567.5818481445312,243.63279724121094 L566.2050170898438,244.4735565185547 L564.6473999023438,244.9801788330078 L563.06884765625,245.1304168701172 L561.6754150390625,244.9667205810547 L560.62158203125,244.56649780273438 L559.9876708984375,244.13543701171875 L559.7136840820312,243.8161163330078 M576.9674682617188,237.647705078125 L576.6744995117188,237.3985137939453 L576.0892944335938,237.06719970703125 L575.2000732421875,236.7912139892578 L574.1043701171875,236.76956176757812 L572.9083862304688,237.09915161132812 L571.72412109375,237.81622314453125 L570.6570434570312,238.8904266357422 L569.8201293945312,240.2357940673828 L569.32373046875,241.7150115966797 L569.261962890625,243.15716552734375 L569.6829223632812,244.39186096191406 L570.5615844726562,245.28195190429688 L571.8016967773438,245.74111938476562 L573.2697143554688,245.7205810546875 L574.82861328125,245.2180938720703 L576.3513793945312,244.26675415039062 L577.7323608398438,242.95838928222656 L578.8628540039062,241.44837951660156 L579.650390625,239.9131622314453 L580.022705078125,238.52320861816406 L579.9940795898438,237.41207885742188 L579.6529541015625,236.635986328125 L579.2431640625,236.19461059570312 L578.9308471679688,236.0121612548828 M583.8489990234375,235.7677459716797 L583.7239990234375,235.92581176757812 L583.499755859375,236.36338806152344 L583.18310546875,237.1881561279297 L582.826416015625,238.4025115966797 L582.4763793945312,239.89508056640625 L582.2032470703125,241.50514221191406 L582.072265625,243.05001831054688 L582.1506958007812,244.36532592773438 L582.4754638671875,245.32073974609375 L583.0582885742188,245.80421447753906 L583.8916625976562,245.74038696289062 L584.9302368164062,245.11904907226562 L586.1000366210938,244.00384521484375 L587.2940673828125,242.5183868408203 L588.4071044921875,240.83900451660156 L589.3526000976562,239.14398193359375 L590.0931396484375,237.60671997070312 L590.6157836914062,236.3596954345703 L590.93701171875,235.50021362304688 L591.0635986328125,235.0841522216797 L591.0205688476562,235.1575164794922 L590.8233642578125,235.7404327392578 L590.5072631835938,236.8209228515625 L590.1377563476562,238.33993530273438 L589.8004760742188,240.13401794433594 L589.56005859375,241.96923828125 L589.4401245117188,243.41786193847656 L589.4075927734375,244.28964233398438 M595.6459350585938,237.0039520263672 L595.623291015625,237.37445068359375 L595.5572509765625,238.13832092285156 L595.4117431640625,239.3080291748047 L595.16943359375,240.74453735351562 L594.83740234375,242.24977111816406 L594.489501953125,243.63552856445312 L594.1945190429688,244.73704528808594 L594.0426025390625,245.42747497558594 L594.087158203125,245.6234130859375 L594.3391723632812,245.2973175048828 L594.7921142578125,244.45176696777344 L595.4379272460938,243.1894073486328 L596.2427368164062,241.66445922851562 L597.1763916015625,240.05328369140625 L598.2030029296875,238.53945922851562 L599.27099609375,237.27328491210938 L600.3453369140625,236.3568115234375 L601.3836669921875,235.8603057861328 L602.3463134765625,235.80250549316406 L603.1836547851562,236.16873168945312 L603.84033203125,236.92391967773438 L604.2776489257812,238.00210571289062 L604.4805908203125,239.31048583984375 L604.490234375,240.7418975830078 L604.3958129882812,242.1374053955078 L604.3009643554688,243.3612060546875 L604.2508544921875,244.22850036621094 L604.2512817382812,244.70359802246094 M614.824951171875,240.05648803710938 L614.73876953125,239.6165008544922 L614.4779052734375,238.96253967285156 L613.9517822265625,238.24014282226562 L613.1173706054688,237.68960571289062 L611.99560546875,237.41873168945312 L610.63671875,237.4935302734375 L609.143310546875,237.93893432617188 L607.6824340820312,238.772705078125 L606.4415893554688,239.94168090820312 L605.59912109375,241.3274383544922 L605.28271484375,242.77137756347656 L605.5293579101562,244.07699584960938 L606.29296875,245.06224060058594 L607.4954833984375,245.5778045654297 L609.0235595703125,245.5121307373047 L610.7319946289062,244.80819702148438 L612.4835815429688,243.4770050048828 L614.1707153320312,241.59083557128906 L615.6983642578125,239.29620361328125 L617.00927734375,236.78416442871094 L618.0842895507812,234.2881317138672 L618.8967895507812,232.046142578125 L619.4545288085938,230.2503204345703 L619.7935791015625,229.01748657226562 L619.9443359375,228.40074157714844 L619.935302734375,228.3906707763672 L619.8038940429688,228.98037719726562 L619.563720703125,230.14547729492188 L619.2374267578125,231.806884765625 L618.854736328125,233.83270263671875 L618.4513549804688,236.04315185546875 L618.0836181640625,238.2884063720703 L617.8155517578125,240.42257690429688 L617.687744140625,242.31761169433594 L617.6680297851562,243.69851684570312 L617.7021484375,244.49183654785156 " fill="none" stroke="black" stroke-linecap="round" stroke-width="2" /></svg>